<svg viewBox="0 0 17 20" xmlns="http://www.w3.org/2000/svg" xmlns:xlink="http://www.w3.org/1999/xlink" width="17.000000" height="20.000000" fill="none" customFrame="#000000">
	<path id="SHOP" d="M13.3571 5C13.3571 2.24301 11.1782 0 8.5 0C5.82174 0 3.64286 2.24301 3.64286 5L0 5L0 16.875C0 18.6009 1.35913 20 3.03571 20L13.9643 20C15.6409 20 17 18.6009 17 16.875L17 5L13.3571 5ZM8.5 1.25C10.5087 1.25 12.1429 2.93223 12.1429 5L4.85714 5C4.85714 2.93223 6.49131 1.25 8.5 1.25ZM15.7857 16.875C15.7857 17.9089 14.9686 18.75 13.9643 18.75L3.03571 18.75C2.03139 18.75 1.21429 17.9089 1.21429 16.875L1.21429 6.25L3.64286 6.25L3.64286 8.125C3.64286 8.4702 3.91471 8.75 4.25 8.75C4.58529 8.75 4.85714 8.4702 4.85714 8.125L4.85714 6.25L12.1429 6.25L12.1429 8.125C12.1429 8.4702 12.4147 8.75 12.75 8.75C13.0853 8.75 13.3571 8.4702 13.3571 8.125L13.3571 6.25L15.7857 6.25L15.7857 16.875Z" fill="rgb(255,255,255)" fill-rule="nonzero" />
</svg>
